<svg width="24" height="25" viewBox="0 0 24 25" fill="none" xmlns="http://www.w3.org/2000/svg">
<path fill-rule="evenodd" clip-rule="evenodd" d="M4.57143 0.8125C2.0467 0.8125 0 2.8592 0 5.38393V20.2411C0 22.7658 2.0467 24.8125 4.57143 24.8125H19.4286C21.9533 24.8125 24 22.7658 24 20.2411V5.38393C24 2.8592 21.9533 0.8125 19.4286 0.8125H4.57143ZM9.10162 7.40577C9.10162 8.20681 8.4073 8.85618 7.55081 8.85618C6.69432 8.85618 6 8.20681 6 7.40577C6 6.60473 6.69432 5.95536 7.55081 5.95536C8.4073 5.95536 9.10162 6.60473 9.10162 7.40577ZM8.86303 9.9223H6.21208V17.9554H8.86303V9.9223ZM13.1311 9.9223H10.4801V17.9554H13.1311V13.8452C13.1311 12.8962 13.4551 11.943 14.7482 11.943C16.2094 11.943 16.2006 13.185 16.1938 14.1472C16.1886 14.8848 16.1938 15.6313 16.1989 16.3781C16.2026 16.9047 16.2062 17.4314 16.2062 17.9554H18.8571V13.7157C18.8347 11.0085 18.1293 9.76114 15.8085 9.76114C14.4303 9.76114 13.576 10.3868 13.1311 10.9529V9.9223Z" fill="white"/>
</svg>
